<svg width="24" height="24" viewBox="0 0 24 24" fill="none" xmlns="http://www.w3.org/2000/svg">
<circle cx="11" cy="11" r="11" transform="matrix(-1 0 0 1 23 1)" fill="#202020"></circle>
<circle cx="11" cy="11" r="11.5" transform="matrix(-1 0 0 1 23 1)" stroke="#C7B994" stroke-opacity="0.7"></circle>
<path d="M15.4523 11.0686L16.7472 9.78167C13.8205 6.87297 10.1838 6.87297 7.25708 9.78167L8.55201 11.0686C10.7779 8.85645 13.2279 8.85645 15.4538 11.0686H15.4523Z" fill="#C7B994"></path>
<path d="M15.0199 14.067L12 11.0656L8.98 14.067L5.96004 11.0656L4.66663 12.3511L8.98 16.6393L12 13.638L15.0199 16.6393L19.3333 12.3511L18.0399 11.0656L15.0199 14.067Z" fill="#C7B994"></path>
</svg>