<svg width="20" height="20" viewBox="0 0 20 20" fill="none" xmlns="http://www.w3.org/2000/svg">
<path fill-rule="evenodd" clip-rule="evenodd" d="M9.12947 1H10.8449C12.2958 0.999983 13.4657 0.999969 14.4011 1.10131C15.3676 1.20602 16.2015 1.42846 16.9261 1.95492C17.3506 2.26331 17.7239 2.6366 18.0323 3.06107C18.5587 3.78569 18.7812 4.61963 18.8859 5.5861C18.9872 6.52147 18.9872 7.69138 18.9872 9.14226V10.8577C18.9872 12.3086 18.9872 13.4785 18.8859 14.4139C18.7812 15.3804 18.5587 16.2143 18.0323 16.9389C17.7239 17.3634 17.3506 17.7367 16.9261 18.0451C16.2015 18.5715 15.3676 18.794 14.4011 18.8987C13.4657 19 12.2958 19 10.8449 19H9.12944C7.67856 19 6.50865 19 5.57328 18.8987C4.60682 18.794 3.77287 18.5715 3.04826 18.0451C2.62378 17.7367 2.2505 17.3634 1.9421 16.9389C1.41564 16.2143 1.1932 15.3804 1.08849 14.4139C0.987151 13.4785 0.987165 12.3086 0.987183 10.8577V9.14229C0.987165 7.6914 0.987151 6.52147 1.08849 5.5861C1.1932 4.61963 1.41564 3.78569 1.9421 3.06107C2.2505 2.6366 2.62378 2.26331 3.04826 1.95492C3.77287 1.42846 4.60682 1.20602 5.57328 1.10131C6.50866 0.999969 7.67858 0.999983 9.12947 1ZM5.7887 3.08967C4.99241 3.17595 4.55068 3.33548 4.22383 3.57295C3.96914 3.75799 3.74517 3.98196 3.56013 4.23665C3.32266 4.5635 3.16313 5.00523 3.07686 5.80152C2.98856 6.61653 2.98718 7.67783 2.98718 9.2V10.8C2.98718 11.953 2.98797 12.8416 3.02673 13.559L3.44077 13.1449C3.93965 12.646 4.36981 12.2158 4.75771 11.9037C5.16977 11.5722 5.62371 11.2978 6.18743 11.2085C6.49836 11.1593 6.81511 11.1593 7.12604 11.2085C7.47915 11.2645 7.79198 11.3935 8.08154 11.568C8.41984 11.7719 8.63731 11.9025 8.79866 11.9878C8.82906 12.0039 8.8542 12.0166 8.87477 12.0266C8.87799 12.0239 8.88138 12.021 8.88495 12.0179C8.97281 11.9423 9.08671 11.8293 9.29006 11.626L9.32941 11.5866C10.0913 10.8246 10.72 10.196 11.2804 9.74511C11.8652 9.27468 12.4656 8.92127 13.1898 8.80657C13.6044 8.74091 14.0267 8.74091 14.4413 8.80657C15.1655 8.92127 15.7659 9.27468 16.3507 9.74511C16.5529 9.90783 16.7641 10.0937 16.9872 10.3007V9.2C16.9872 7.67783 16.9858 6.61653 16.8975 5.80152C16.8112 5.00523 16.6517 4.5635 16.4142 4.23665C16.2292 3.98196 16.0052 3.75799 15.7505 3.57295C15.4237 3.33548 14.982 3.17595 14.1857 3.08967C13.3707 3.00137 12.3094 3 10.7872 3H9.18718C7.66502 3 6.60371 3.00137 5.7887 3.08967ZM16.9675 13.0808L16.9268 13.0402C16.1156 12.229 15.5631 11.6784 15.097 11.3034C14.6456 10.9403 14.367 10.8197 14.1284 10.7819C13.9211 10.7491 13.71 10.7491 13.5027 10.7819C13.2641 10.8197 12.9855 10.9403 12.5341 11.3034C12.068 11.6784 11.5155 12.229 10.7043 13.0402L10.6831 13.0614C10.5089 13.2356 10.3413 13.4032 10.1896 13.5338C10.0255 13.675 9.81528 13.8314 9.5419 13.9286C9.42214 13.9712 9.28093 14.0135 9.11479 14.0338C8.94866 14.0541 8.80141 14.047 8.67492 14.0345C8.35281 14.0026 8.06531 13.8625 7.86347 13.7557C7.64656 13.641 7.3806 13.4807 7.07351 13.2956L7.04926 13.281C6.93686 13.2133 6.86604 13.1923 6.81317 13.1839C6.70953 13.1675 6.60395 13.1675 6.5003 13.1839C6.42218 13.1963 6.29006 13.2378 6.01137 13.462C5.71801 13.6981 5.3643 14.0498 4.81826 14.5959L4.25257 15.1615C3.99577 15.4183 3.78157 15.6329 3.60174 15.8192C3.7784 16.0509 3.98794 16.2557 4.22383 16.4271C4.55068 16.6645 4.99241 16.8241 5.7887 16.9103C6.60371 16.9986 7.66502 17 9.18718 17H10.7872C12.3094 17 13.3707 16.9986 14.1857 16.9103C14.982 16.8241 15.4237 16.6645 15.7505 16.4271C16.0052 16.242 16.2292 16.018 16.4142 15.7634C16.6517 15.4365 16.8112 14.9948 16.8975 14.1985C16.933 13.8705 16.9545 13.5026 16.9675 13.0808ZM8.94513 12.0576C8.94647 12.058 8.94714 12.0583 8.94712 12.0583L8.94513 12.0576ZM4.98718 7C4.98718 5.89543 5.88261 5 6.98718 5C8.09175 5 8.98718 5.89543 8.98718 7C8.98718 8.10457 8.09175 9 6.98718 9C5.88261 9 4.98718 8.10457 4.98718 7Z" fill="#E4E7E7"/>
</svg>
