<svg width="32" height="32" viewBox="0 0 32 32" fill="none" xmlns="http://www.w3.org/2000/svg">
<path d="M0.5 16C0.5 7.43959 7.43959 0.5 16 0.5C24.5604 0.5 31.5 7.43959 31.5 16C31.5 24.5604 24.5604 31.5 16 31.5C7.43959 31.5 0.5 24.5604 0.5 16Z" stroke="white" stroke-opacity="0.05"/>
<path d="M20.7268 15.3304C20.7363 14.5944 20.9318 13.8729 21.2951 13.2328C21.6584 12.5927 22.1777 12.0549 22.8046 11.6695C22.4063 11.1006 21.8809 10.6325 21.27 10.3022C20.6591 9.97199 19.9797 9.78874 19.2856 9.76702C17.805 9.61161 16.3696 10.653 15.6151 10.653C14.8461 10.653 13.6844 9.78245 12.4335 9.80819C11.6244 9.83433 10.8358 10.0696 10.1447 10.4911C9.45352 10.9126 8.88334 11.506 8.48969 12.2134C6.78446 15.1657 8.05641 19.5046 9.68987 21.8911C10.5071 23.0596 11.4623 24.365 12.712 24.3187C13.935 24.268 14.3918 23.5388 15.868 23.5388C17.3306 23.5388 17.7591 24.3187 19.0342 24.2892C20.3466 24.2679 21.1734 23.1155 21.962 21.9358C22.5491 21.1032 23.001 20.1829 23.3007 19.2091C22.5383 18.8867 21.8877 18.3469 21.43 17.6572C20.9723 16.9674 20.7277 16.1582 20.7268 15.3304Z" fill="white"/>
<path d="M18.3183 8.19758C19.0338 7.33861 19.3864 6.23456 19.301 5.11987C18.2078 5.23469 17.198 5.75715 16.4728 6.58316C16.1183 6.98669 15.8467 7.45614 15.6737 7.96469C15.5006 8.47323 15.4295 9.01089 15.4644 9.54693C16.0112 9.55256 16.5521 9.43405 17.0465 9.20032C17.5408 8.96659 17.9757 8.62373 18.3183 8.19758Z" fill="white"/>
</svg>
