<svg width="32" height="32" viewBox="0 0 32 32" fill="none" xmlns="http://www.w3.org/2000/svg">
<g clip-path="url(#clip0_365_3926)">
<rect width="32" height="32" fill="#1877F2"/>
<path d="M32 16C32 7.16344 24.8366 0 16 0C7.16344 0 0 7.16344 0 16C0 23.9861 5.85096 30.6053 13.5 31.8056V20.625H9.43751V16H13.5V12.475C13.5 8.465 15.8887 6.25001 19.5434 6.25001C21.294 6.25001 23.125 6.5625 23.125 6.5625V10.5H21.1074C19.1198 10.5 18.5 11.7334 18.5 12.9987V16H22.9375L22.2281 20.625H18.5V31.8056C26.149 30.6053 32 23.9861 32 16Z" fill="#1877F2"/>
<path d="M22.2281 20.625L22.9375 16H18.5V12.9987C18.5 11.7334 19.1198 10.5 21.1074 10.5H23.125V6.5625C23.125 6.5625 21.294 6.25001 19.5434 6.25001C15.8887 6.25001 13.5 8.465 13.5 12.475V16H9.43751V20.625H13.5V31.8056C14.327 31.9352 15.1629 32.0002 16 32C16.8505 32 17.6854 31.9334 18.5 31.8056V20.625H22.2281Z" fill="white"/>
</g>
<path d="M0.5 16C0.5 7.43959 7.43959 0.5 16 0.5C24.5604 0.5 31.5 7.43959 31.5 16C31.5 24.5604 24.5604 31.5 16 31.5C7.43959 31.5 0.5 24.5604 0.5 16Z" stroke="white" stroke-opacity="0.05"/>
<defs>
<clipPath id="clip0_365_3926">
<path d="M0 16C0 7.16344 7.16344 0 16 0C24.8366 0 32 7.16344 32 16C32 24.8366 24.8366 32 16 32C7.16344 32 0 24.8366 0 16Z" fill="white"/>
</clipPath>
</defs>
</svg>
