<svg width="32" height="32" viewBox="0 0 32 32" fill="none" xmlns="http://www.w3.org/2000/svg">
<g clip-path="url(#clip0_1661_11108)">
<rect width="32" height="32" fill="#855DCD"/>
<path d="M9.58349 7.04004H22.1853V24.96H20.3355V16.7515H20.3173C20.1129 14.4829 18.2063 12.7051 15.8844 12.7051C13.5625 12.7051 11.6559 14.4829 11.4514 16.7515H11.4333V24.96H9.58349V7.04004Z" fill="white"/>
<path d="M6.23071 9.58352L6.9822 12.127H7.61807V22.4166C7.29881 22.4166 7.04 22.6754 7.04 22.9946V23.6883H6.92439C6.60513 23.6883 6.34633 23.9471 6.34633 24.2664V24.96H12.8206V24.2664C12.8206 23.9471 12.5618 23.6883 12.2426 23.6883H12.127V22.9946C12.127 22.6754 11.8682 22.4166 11.5489 22.4166H10.8552V9.58352H6.23071Z" fill="white"/>
<path d="M20.4511 22.4166C20.1318 22.4166 19.873 22.6754 19.873 22.9946V23.6883H19.7574C19.4382 23.6883 19.1794 23.9471 19.1794 24.2664V24.96H25.6537V24.2664C25.6537 23.9471 25.3949 23.6883 25.0756 23.6883H24.96V22.9946C24.96 22.6754 24.7012 22.4166 24.3819 22.4166V12.127H25.0178L25.7693 9.58352H21.1448V22.4166H20.4511Z" fill="white"/>
</g>
<path d="M0.5 16C0.5 7.43959 7.43959 0.5 16 0.5C24.5604 0.5 31.5 7.43959 31.5 16C31.5 24.5604 24.5604 31.5 16 31.5C7.43959 31.5 0.5 24.5604 0.5 16Z" stroke="#141414" stroke-opacity="0.05"/>
<defs>
<clipPath id="clip0_1661_11108">
<path d="M0 16C0 7.16344 7.16344 0 16 0C24.8366 0 32 7.16344 32 16C32 24.8366 24.8366 32 16 32C7.16344 32 0 24.8366 0 16Z" fill="white"/>
</clipPath>
</defs>
</svg>
