<svg width="32" height="32" viewBox="0 0 32 32" fill="none" xmlns="http://www.w3.org/2000/svg">
<g clip-path="url(#clip0_365_3918)">
<path d="M26.1921 16.2365C26.1921 15.499 26.1259 14.7899 26.003 14.1092H16.2081V18.1368H21.8052C21.5594 19.4321 20.8219 20.5288 19.7157 21.2663V23.8852H23.091C25.0576 22.0699 26.1921 19.4037 26.1921 16.2365Z" fill="#4285F4"/>
<path d="M16.2081 26.4001C19.0161 26.4001 21.3703 25.4736 23.091 23.8852L19.7157 21.2663C18.7892 21.8903 17.6074 22.2685 16.2081 22.2685C13.5041 22.2685 11.2067 20.4437 10.3841 17.9856H6.92374V20.6706C8.63501 24.0648 12.1427 26.4001 16.2081 26.4001Z" fill="#34A853"/>
<path d="M10.3841 17.9761C10.1761 17.3521 10.0532 16.6903 10.0532 16.0001C10.0532 15.3099 10.1761 14.6481 10.3841 14.0241V11.339H6.92374C6.21465 12.7383 5.80811 14.3172 5.80811 16.0001C5.80811 17.683 6.21465 19.2619 6.92374 20.6612L9.61829 18.5623L10.3841 17.9761Z" fill="#FBBC05"/>
<path d="M16.2081 9.74119C17.7397 9.74119 19.1012 10.2706 20.1885 11.2917L23.1667 8.31355C21.3608 6.63064 19.0161 5.6001 16.2081 5.6001C12.1427 5.6001 8.63501 7.93537 6.92374 11.339L10.3841 14.0241C11.2067 11.5659 13.5041 9.74119 16.2081 9.74119Z" fill="#EA4335"/>
</g>
<path d="M0.5 16C0.5 7.43959 7.43959 0.5 16 0.5C24.5604 0.5 31.5 7.43959 31.5 16C31.5 24.5604 24.5604 31.5 16 31.5C7.43959 31.5 0.5 24.5604 0.5 16Z" stroke="white" stroke-opacity="0.05"/>
<defs>
<clipPath id="clip0_365_3918">
<path d="M0 16C0 7.16344 7.16344 0 16 0C24.8366 0 32 7.16344 32 16C32 24.8366 24.8366 32 16 32C7.16344 32 0 24.8366 0 16Z" fill="white"/>
</clipPath>
</defs>
</svg>
