<svg width="32" height="32" viewBox="0 0 32 32" fill="none" xmlns="http://www.w3.org/2000/svg">
<path d="M0 16C0 7.16344 7.16344 0 16 0C24.8366 0 32 7.16344 32 16C32 24.8366 24.8366 32 16 32C7.16344 32 0 24.8366 0 16Z" fill="white" fill-opacity="0.05"/>
<path d="M0.5 16C0.5 7.43959 7.43959 0.5 16 0.5C24.5604 0.5 31.5 7.43959 31.5 16C31.5 24.5604 24.5604 31.5 16 31.5C7.43959 31.5 0.5 24.5604 0.5 16Z" stroke="white" stroke-opacity="0.05"/>
<path d="M12 16.25C12 17.3546 11.1046 18.25 10 18.25C8.89543 18.25 8 17.3546 8 16.25C8 15.1454 8.89543 14.25 10 14.25C11.1046 14.25 12 15.1454 12 16.25Z" fill="#949E9E"/>
<path d="M18 16.25C18 17.3546 17.1046 18.25 16 18.25C14.8954 18.25 14 17.3546 14 16.25C14 15.1454 14.8954 14.25 16 14.25C17.1046 14.25 18 15.1454 18 16.25Z" fill="#949E9E"/>
<path d="M22 18.25C23.1046 18.25 24 17.3546 24 16.25C24 15.1454 23.1046 14.25 22 14.25C20.8954 14.25 20 15.1454 20 16.25C20 17.3546 20.8954 18.25 22 18.25Z" fill="#949E9E"/>
</svg>
