<svg width="32" height="32" viewBox="0 0 32 32" fill="none" xmlns="http://www.w3.org/2000/svg">
<g clip-path="url(#clip0_365_3946)">
<rect width="32" height="32" fill="#9146FF"/>
<path d="M23.3107 16.5486L20.385 19.4743H17.4592L14.8992 22.0343V19.4743H11.6078V8.5029H23.3107V16.5486Z" fill="white"/>
<path d="M10.8764 7.04004L7.21924 10.6972V23.8629H11.6078V27.52L15.265 23.8629H18.1907L24.7735 17.28V7.04004H10.8764ZM23.3107 16.5486L20.385 19.4743H17.4592L14.8992 22.0343V19.4743H11.6078V8.5029H23.3107V16.5486Z" fill="black"/>
<path d="M21.1164 11.0629H19.6535V15.4515H21.1164V11.0629Z" fill="black"/>
<path d="M17.0935 11.0629H15.6307V15.4515H17.0935V11.0629Z" fill="black"/>
</g>
<path d="M0.5 16C0.5 7.43959 7.43959 0.5 16 0.5C24.5604 0.5 31.5 7.43959 31.5 16C31.5 24.5604 24.5604 31.5 16 31.5C7.43959 31.5 0.5 24.5604 0.5 16Z" stroke="white" stroke-opacity="0.05"/>
<defs>
<clipPath id="clip0_365_3946">
<path d="M0 16C0 7.16344 7.16344 0 16 0C24.8366 0 32 7.16344 32 16C32 24.8366 24.8366 32 16 32C7.16344 32 0 24.8366 0 16Z" fill="white"/>
</clipPath>
</defs>
</svg>
