<svg width="32" height="32" viewBox="0 0 32 32" fill="none" xmlns="http://www.w3.org/2000/svg">
<g clip-path="url(#clip0_365_3928)">
<rect width="32" height="32" fill="black"/>
<path d="M17.4614 14.7684L23.1795 8.12158H21.8245L16.8594 13.8929L12.8939 8.12158H8.32007L14.3168 16.8489L8.32007 23.8191H9.67515L14.9184 17.7244L19.1063 23.8191H23.6801L17.4614 14.7684ZM10.1634 9.14167H12.2447L21.8251 22.8454H19.7438L10.1634 9.14167Z" fill="white"/>
</g>
<path d="M0.5 16C0.5 7.43959 7.43959 0.5 16 0.5C24.5604 0.5 31.5 7.43959 31.5 16C31.5 24.5604 24.5604 31.5 16 31.5C7.43959 31.5 0.5 24.5604 0.5 16Z" stroke="white" stroke-opacity="0.05"/>
<defs>
<clipPath id="clip0_365_3928">
<path d="M0 16C0 7.16344 7.16344 0 16 0C24.8366 0 32 7.16344 32 16C32 24.8366 24.8366 32 16 32C7.16344 32 0 24.8366 0 16Z" fill="white"/>
</clipPath>
</defs>
</svg>
