<svg width="32" height="32" viewBox="0 0 32 32" fill="none" xmlns="http://www.w3.org/2000/svg">
<path d="M0.5 16C0.5 7.43959 7.43959 0.5 16 0.5C24.5604 0.5 31.5 7.43959 31.5 16C31.5 24.5604 24.5604 31.5 16 31.5C7.43959 31.5 0.5 24.5604 0.5 16Z" stroke="#141414" stroke-opacity="0.05"/>
<path d="M23.0972 8.97394C21.7919 8.375 20.3921 7.93373 18.9286 7.68099C18.9019 7.67611 18.8753 7.6883 18.8616 7.71268C18.6815 8.03287 18.4821 8.45057 18.3425 8.77889C16.7684 8.54322 15.2023 8.54322 13.6604 8.77889C13.5208 8.44327 13.3141 8.03287 13.1333 7.71268C13.1196 7.68912 13.0929 7.67693 13.0663 7.68099C11.6036 7.93292 10.2038 8.37419 8.89766 8.97394C8.88635 8.97881 8.87666 8.98695 8.87023 8.9975C6.21517 12.9641 5.48784 16.8332 5.84464 20.6543C5.84626 20.673 5.85675 20.6909 5.87128 20.7023C7.62301 21.9887 9.31987 22.7697 10.9852 23.2874C11.0119 23.2955 11.0401 23.2857 11.0571 23.2638C11.451 22.7258 11.8022 22.1586 12.1032 21.5621C12.121 21.5271 12.104 21.4857 12.0677 21.4719C11.5107 21.2606 10.9804 21.003 10.4702 20.7104C10.4298 20.6869 10.4266 20.6291 10.4637 20.6015C10.5711 20.5211 10.6785 20.4373 10.781 20.3528C10.7995 20.3374 10.8254 20.3341 10.8472 20.3439C14.1989 21.8741 17.8275 21.8741 21.1396 20.3439C21.1614 20.3333 21.1872 20.3366 21.2066 20.352C21.3091 20.4365 21.4165 20.5211 21.5247 20.6015C21.5618 20.6291 21.5594 20.6869 21.519 20.7104C21.0088 21.0086 20.4785 21.2606 19.9207 21.4711C19.8843 21.4849 19.8682 21.5271 19.886 21.5621C20.1935 22.1577 20.5447 22.725 20.9313 23.263C20.9475 23.2857 20.9765 23.2955 21.0032 23.2874C22.6766 22.7697 24.3734 21.9887 26.1252 20.7023C26.1405 20.6909 26.1502 20.6738 26.1518 20.6552C26.5789 16.2375 25.4366 12.4001 23.1238 8.99831C23.1182 8.98695 23.1085 8.97881 23.0972 8.97394ZM12.6038 18.3277C11.5947 18.3277 10.7632 17.4013 10.7632 16.2635C10.7632 15.1258 11.5786 14.1994 12.6038 14.1994C13.637 14.1994 14.4604 15.1339 14.4443 16.2635C14.4443 17.4013 13.6289 18.3277 12.6038 18.3277ZM19.4089 18.3277C18.3998 18.3277 17.5683 17.4013 17.5683 16.2635C17.5683 15.1258 18.3836 14.1994 19.4089 14.1994C20.4421 14.1994 21.2655 15.1339 21.2494 16.2635C21.2494 17.4013 20.4421 18.3277 19.4089 18.3277Z" fill="#5865F2"/>
</svg>
