<svg width="32" height="32" viewBox="0 0 32 32" fill="none" xmlns="http://www.w3.org/2000/svg">
<g clip-path="url(#clip0_365_3966)">
<path fill-rule="evenodd" clip-rule="evenodd" d="M15.9993 4.80005C9.69584 4.80005 4.6001 9.93336 4.6001 16.284C4.6001 21.3603 7.86512 25.6574 12.3946 27.1783C12.9609 27.2926 13.1683 26.9312 13.1683 26.6271C13.1683 26.3609 13.1496 25.4483 13.1496 24.4975C9.97864 25.1821 9.31831 23.1285 9.31831 23.1285C8.80871 21.7976 8.05365 21.4555 8.05365 21.4555C7.01579 20.752 8.12925 20.752 8.12925 20.752C9.28051 20.8281 9.88461 21.9308 9.88461 21.9308C10.9036 23.6799 12.5455 23.1857 13.2061 22.8814C13.3004 22.1399 13.6025 21.6266 13.9234 21.3414C11.3943 21.0752 8.73335 20.0866 8.73335 15.6754C8.73335 14.4206 9.18601 13.3939 9.90328 12.5955C9.79011 12.3103 9.39368 11.1313 10.0167 9.55326C10.0167 9.55326 10.9792 9.249 13.1494 10.7321C14.0785 10.4807 15.0368 10.3528 15.9993 10.3517C16.9618 10.3517 17.943 10.485 18.849 10.7321C21.0195 9.249 21.982 9.55326 21.982 9.55326C22.605 11.1313 22.2083 12.3103 22.0951 12.5955C22.8313 13.3939 23.2653 14.4206 23.2653 15.6754C23.2653 20.0866 20.6044 21.0561 18.0564 21.3414C18.4717 21.7026 18.8301 22.387 18.8301 23.4708C18.8301 25.0108 18.8114 26.2468 18.8114 26.6269C18.8114 26.9312 19.0191 27.2926 19.5852 27.1785C24.1146 25.6572 27.3796 21.3603 27.3796 16.284C27.3983 9.93336 22.2839 4.80005 15.9993 4.80005Z" fill="#1B1F23"/>
</g>
<path d="M0.5 16C0.5 7.43959 7.43959 0.5 16 0.5C24.5604 0.5 31.5 7.43959 31.5 16C31.5 24.5604 24.5604 31.5 16 31.5C7.43959 31.5 0.5 24.5604 0.5 16Z" stroke="#141414" stroke-opacity="0.05"/>
<defs>
<clipPath id="clip0_365_3966">
<path d="M0 16C0 7.16344 7.16344 0 16 0C24.8366 0 32 7.16344 32 16C32 24.8366 24.8366 32 16 32C7.16344 32 0 24.8366 0 16Z" fill="white"/>
</clipPath>
</defs>
</svg>
