<?xml version="1.0" encoding="UTF-8" standalone="no" ?>
<!DOCTYPE svg PUBLIC "-//W3C//DTD SVG 1.1//EN" "http://www.w3.org/Graphics/SVG/1.1/DTD/svg11.dtd">
<svg xmlns="http://www.w3.org/2000/svg" xmlns:xlink="http://www.w3.org/1999/xlink" version="1.1" width="1080" height="1080" viewBox="0 0 1080 1080" xml:space="preserve">
<desc>Created with Fabric.js 5.2.4</desc>
<defs>
</defs>
<g transform="matrix(1 0 0 1 540 540)" id="e3775ca4-243a-4bf1-a154-1712957e2f2b"  >
<rect style="stroke: none; stroke-width: 1; stroke-dasharray: none; stroke-linecap: butt; stroke-dashoffset: 0; stroke-linejoin: miter; stroke-miterlimit: 4; fill: rgb(27,31,35); fill-rule: nonzero; opacity: 1;" vector-effect="non-scaling-stroke"  x="-540" y="-540" rx="0" ry="0" width="1080" height="1080" />
</g>
<g transform="matrix(1 0 0 1 540 540)" id="32ffe1a9-696a-46b6-8dcc-38a47ec1bfbd"  >
</g>
<g transform="matrix(27 0 0 27 540 540)"  >
<g style=""   >
		<g transform="matrix(1 0 0 1 0 -0.11)" clip-path="url(#CLIPPATH_3)"  >
<clipPath id="CLIPPATH_3" >
	<path transform="matrix(1 0 0 1 0 0.11) translate(-20, -20)" id="b" clip-path="url(#undefined)" d="M 0 0 L 40 0 L 40 40 L 0 40 z" stroke-linecap="round" />
</clipPath>
<circle style="stroke: none; stroke-width: 1; stroke-dasharray: none; stroke-linecap: butt; stroke-dashoffset: 0; stroke-linejoin: miter; stroke-miterlimit: 4; fill: rgb(27,31,35); fill-rule: nonzero; opacity: 1;" vector-effect="non-scaling-stroke"  cx="0" cy="0" r="20" />
</g>
		<g transform="matrix(1 0 0 1 0 -0.41)" clip-path="url(#CLIPPATH_4)"  >
<clipPath id="CLIPPATH_4" >
	<path transform="matrix(1 0 0 1 0 0.3) translate(-20, -19.89)" id="c" clip-path="url(#undefined)" d="M 8 7.89 L 32 7.89 L 32 31.89 L 8 31.89 z" stroke-linecap="round" />
</clipPath>
<path style="stroke: none; stroke-width: 1; stroke-dasharray: none; stroke-linecap: butt; stroke-dashoffset: 0; stroke-linejoin: miter; stroke-miterlimit: 4; fill: rgb(255,255,255); fill-rule: nonzero; opacity: 1;" vector-effect="non-scaling-stroke"  transform=" translate(-20, -19.59)" d="M 8 19.89 C 7.998752307678362 13.76018217848236 12.617597513822972 8.614811334095418 18.712004316288425 7.956879872775744 C 24.80641111875388 7.29894841145607 30.41698971699158 11.339985401832344 31.724032102204234 17.328834062884738 C 33.03107448741689 23.31768272393713 29.61435838014748 29.328890855994945 23.79999999999999 31.270000000000007 C 23.2 31.390000000000004 23 31.01 23 30.700000000000003 L 23 27.400000000000002 C 23 26.28 22.6 25.55 22.18 25.180000000000003 C 24.85 24.880000000000003 27.66 23.870000000000005 27.66 19.260000000000005 C 27.66 17.950000000000006 27.19 16.880000000000006 26.42 16.040000000000006 C 26.55 15.740000000000006 26.96 14.520000000000007 26.3 12.860000000000007 C 26.3 12.860000000000007 25.3 12.540000000000006 23 14.090000000000007 C 21.034983452620484 13.560974839006814 18.965016547379506 13.560974839006816 16.999999999999993 14.09000000000001 C 14.7 12.540000000000006 13.7 12.860000000000007 13.7 12.860000000000007 C 13.256817581548782 13.866114250203058 13.213903141588121 15.003346909160614 13.580000000000002 16.040000000000006 C 12.76810745194999 16.9140253582684 12.324037979814216 18.06717350365323 12.34 19.260000000000005 C 12.34 23.860000000000007 15.14 24.890000000000004 17.81 25.190000000000005 C 17.47 25.490000000000006 17.16 26.020000000000003 17.049999999999997 26.790000000000006 C 16.359999999999996 27.100000000000005 14.629999999999997 27.630000000000006 13.549999999999997 25.790000000000006 C 13.549999999999997 25.790000000000006 12.919999999999996 24.640000000000008 11.719999999999997 24.560000000000006 C 11.719999999999997 24.560000000000006 10.539999999999997 24.540000000000006 11.629999999999997 25.290000000000006 C 11.629999999999997 25.290000000000006 12.429999999999998 25.660000000000007 12.969999999999997 27.050000000000008 C 12.969999999999997 27.050000000000008 13.669999999999996 29.19000000000001 16.999999999999996 28.460000000000008 L 16.999999999999996 30.70000000000001 C 16.999999999999996 31.01000000000001 16.799999999999997 31.38000000000001 16.199999999999996 31.27000000000001 C 11.306929767243174 29.636463824083354 8.005349743092397 25.05854127840111 8 19.9 Z" stroke-linecap="round" />
</g>
</g>
</g>
</svg>